<?xml version="1.0" encoding="UTF-8"?>
<svg width="473px" height="110px" viewBox="0 0 473 110" version="1.1" xmlns="http://www.w3.org/2000/svg" xmlns:xlink="http://www.w3.org/1999/xlink">
    <!-- Generator: Sketch 52.5 (67469) - http://www.bohemiancoding.com/sketch -->
    <title>Artboard</title>
    <desc>Created with Sketch.</desc>
    <g id="Artboard" stroke="none" stroke-width="1" fill="none" fill-rule="evenodd">
        <g id="betterfin_logo" fill="#F04A31">
            <path d="M137.601155,37.1535301 C134.948908,37.2236697 132.347715,37.8915252 129.995287,39.1063342 C127.327155,40.3769944 125.456084,41.7479698 124.267245,43.4132034 L124.267245,18 L114,18 L114,87.2175408 L124.267245,87.2175408 L124.267245,81.5463839 C126.14507,84.7698481 131.778546,88 137.776778,88 C152.299527,88 159.999961,78.6372409 159.999961,62.5867966 C160.020225,46.9309258 152.218469,37.1535301 137.601155,37.1535301 Z M145.598798,74.6045667 C143.378697,77.385031 139.995595,79.0068562 136.415693,79.0068562 C132.835791,79.0068562 129.452689,77.385031 127.232588,74.6045667 C124.863916,71.5683577 123.679581,67.5557466 123.679581,62.5667335 C123.679581,57.5844081 124.861665,53.5717971 127.232588,50.6359033 C129.419146,47.8029557 132.814521,46.1410057 136.415693,46.1410057 C140.016865,46.1410057 143.41224,47.8029557 145.598798,50.6359033 C147.969721,53.5717971 149.15856,57.5844081 149.15856,62.5667335 C149.15856,67.5490589 147.99674,71.5683577 145.598798,74.6045667 Z" id="Shape" fill-rule="nonzero"></path>
            <path d="M190.144824,37 C173.796603,37 167,50.7364474 167,62.5 C167,74.2635526 173.796603,88 190.144824,88 C201.077317,88 206.890467,83.7790789 211.908771,74.0689474 L203.151999,70.6331579 C200.827219,75.7057029 195.748949,78.9639608 190.15156,78.9743421 C182.371504,78.9743421 177.83819,73.0825 177.83819,65.3318421 L213,65.3318421 L213,60.9364474 C212.993264,49.8506579 206.001318,37 190.144824,37 Z M178.067213,56.8161842 C179.24601,50.4411842 183.577244,46.0256579 190.191975,46.0256579 C197.183922,46.0256579 201.319813,50.6357895 202.208962,56.8161842 L178.067213,56.8161842 Z" id="Shape" fill-rule="nonzero"></path>
            <path d="M268.660012,79.0062838 C264.281307,79.0062838 262.138536,76.3317427 262.138536,70.9826604 L262.138536,46.9117899 L274.888687,46.9117899 L274.888687,37.9453907 L262.138536,37.9453907 L262.138536,18 L252.023593,24.3520353 L252.023593,37.9453907 L231.114943,37.9453907 L231.114943,18 L221,24.3520353 L221,70.4009477 C221,82.0352017 227.321839,87.9994285 237.050817,87.9994285 C239.775893,88.0212145 242.470199,87.4198739 244.929825,86.2409177 L242.334543,77.6355815 C240.935131,78.5104486 239.324379,78.9844221 237.676346,79.0062838 C233.297641,79.0062838 231.15487,76.3317427 231.15487,70.9826604 L231.15487,46.9117899 L252.063521,46.9117899 L252.063521,70.3742022 C252.063521,82.0084563 258.38536,87.9726831 268.114338,87.9726831 C270.841362,87.9926858 273.537439,87.3914579 276,86.2141723 L273.371446,77.6088361 C271.960099,78.5041227 270.328994,78.9879209 268.660012,79.0062838 Z" id="Path"></path>
            <path d="M304.144824,37 C287.796603,37 281,50.7364474 281,62.5 C281,74.2635526 287.796603,88 304.144824,88 C315.077317,88 320.890467,83.7790789 325.908771,74.0689474 L317.151999,70.6331579 C314.827219,75.7057029 309.748949,78.9639608 304.15156,78.9743421 C296.371504,78.9743421 291.83819,73.0825 291.83819,65.3318421 L327,65.3318421 L327,60.9364474 C326.993264,49.8506579 320.001318,37 304.144824,37 Z M292.020062,56.8161842 C293.198858,50.4411842 297.530092,46.0256579 304.144824,46.0256579 C311.13677,46.0256579 315.272661,50.6357895 316.16181,56.8161842 L292.020062,56.8161842 Z" id="Shape" fill-rule="nonzero"></path>
            <path d="M343.161743,46.1703911 L343.161743,37.7976567 L333,37.7976567 L333,88 L343.161743,88 L343.161743,69.3742425 C343.161743,61.8803387 344.43196,56.2258476 347.072676,52.2404532 C349.713392,48.2550589 352.842139,46.1635784 356.432176,46.1635784 C358.454603,46.0994568 360.453933,46.6164782 362.201639,47.6555466 L364,38.1927898 C362.009274,37.3873907 359.884312,36.9825313 357.742506,37.0005778 C352.253828,37.0005778 346.39077,40.2842702 343.161743,46.1703911 Z" id="Path"></path>
            <path d="M384.198934,36.8862056 C384.198934,31.0506182 388.225714,27.0948609 394.843011,27.0948609 C398.225214,27.1175031 401.56284,27.8924866 404.627955,29.3668856 L407.789042,20.8670788 C404.431206,18.9872488 400.024047,18 394.561006,18 C388.901216,18 384.008744,19.5823029 380.080339,22.7333849 C376.151933,25.8844668 374.230359,30.5434699 374.230359,36.8726816 L374.230359,38.1574575 L368,38.1574575 L368,47.2658423 L374.230359,47.2658423 L374.230359,88 L384.198934,88 L384.198934,47.2658423 L406.024867,47.2658423 L406.024867,88 L416,88 L416,38.1709815 L384.198934,38.1709815 L384.198934,36.8862056 Z" id="Path"></path>
            <path d="M453.091628,39.0000622 C446.771914,38.983161 440.927485,42.4132029 437.775709,47.9888358 L437.775709,39.7654818 L428,39.7654818 L428,87.9738318 L437.775709,87.9738318 L437.775709,68.4589033 C437.775709,62.1458272 438.996869,57.1738709 441.342782,53.4449037 C443.791529,49.7093944 446.606625,47.7991164 449.89733,47.7991164 C454.781971,47.7991164 457.224291,50.7626641 457.224291,56.5981707 L457.224291,88 L467,88 L467,53.4449037 C467,44.2598686 461.453362,39.0000622 453.091628,39.0000622 Z" id="Path"></path>
            <ellipse id="Oval" transform="translate(21.557780, 19.196749) rotate(-13.280000) translate(-21.557780, -19.196749) " cx="21.5577797" cy="19.1967492" rx="15.9621425" ry="15.8493618"></ellipse>
            <ellipse id="Oval" transform="translate(21.378952, 54.233031) rotate(-22.500000) translate(-21.378952, -54.233031) " cx="21.3789516" cy="54.2330308" rx="15.9503689" ry="15.861212"></ellipse>
            <ellipse id="Oval" transform="translate(57.000541, 54.237330) rotate(-22.500000) translate(-57.000541, -54.237330) " cx="57.0005406" cy="54.2373302" rx="15.9503689" ry="15.861212"></ellipse>
            <ellipse id="Oval" transform="translate(21.374329, 89.208286) rotate(-67.500000) translate(-21.374329, -89.208286) " cx="21.3743294" cy="89.2082861" rx="15.861212" ry="15.9503689"></ellipse>
            <ellipse id="Oval" transform="translate(56.998878, 89.208814) rotate(-67.500000) translate(-56.998878, -89.208814) " cx="56.9988778" cy="89.2088143" rx="15.861212" ry="15.9503689"></ellipse>
        </g>
    </g>
</svg>