<?xml version="1.0" encoding="UTF-8"?>
<svg width="183px" height="184px" viewBox="0 0 183 184" version="1.1" xmlns="http://www.w3.org/2000/svg" xmlns:xlink="http://www.w3.org/1999/xlink">
    <!-- Generator: Sketch 52.5 (67469) - http://www.bohemiancoding.com/sketch -->
    <title>Artboard</title>
    <desc>Created with Sketch.</desc>
    <g id="Artboard" stroke="none" stroke-width="1" fill="none" fill-rule="evenodd">
        <path d="" id="Path-2" stroke="#979797"></path>
        <path d="M71.4,57 L87,57 L87,127 L71.4,127 L71.4,99.4606581 L43.6,99.4606581 L43.6,127 L28,127 L28,57 L43.6,57 L43.6,86.241774 L71.4,86.241774 L71.4,57 Z M98,57 L126,57 L126,127 L111.159011,127 L111.159011,70.3190272 L98,70.3190272 L98,57 Z M141.409091,124.590909 C139.136352,122.227261 138,119.363653 138,116 C138,112.636347 139.159079,109.795466 141.477273,107.477273 C143.795466,105.159079 146.636347,104 150,104 C153.363653,104 156.204534,105.159079 158.522727,107.477273 C160.840921,109.795466 162,112.636347 162,116 C162,119.363653 160.840921,122.204534 158.522727,124.522727 C156.204534,126.840921 153.363653,128 150,128 C146.636347,128 143.772739,126.863648 141.409091,124.590909 Z" id="H1." fill="#FFFFFF"></path>
    </g>
</svg>