<?xml version="1.0" encoding="UTF-8"?>
<svg width="797px" height="338px" viewBox="0 0 797 338" version="1.1" xmlns="http://www.w3.org/2000/svg" xmlns:xlink="http://www.w3.org/1999/xlink">
    <!-- Generator: Sketch 51.3 (57544) - http://www.bohemiancoding.com/sketch -->
    <title>Path 3</title>
    <desc>Created with Sketch.</desc>
    <defs></defs>
    <g id="Page-1" stroke="none" stroke-width="1" fill="none" fill-rule="evenodd">
        <g id="Desktop" transform="translate(-227.000000, -134.000000)" stroke="#FFDD83">
            <g id="Group-3" transform="translate(-263.000000, 54.000000)">
                <path d="M1290,91 C1115.76204,98.0864537 941.231417,98.8841875 767.286131,112.259361 C751.722045,113.45613 796.747383,124.1266 812.010229,127.754064 C876.401718,143.057748 941.793226,152.827155 1006.01674,168.997574 C1009.3548,169.83804 1000.28458,173.697769 996.907144,174.308047 C930.047754,186.389054 861.968365,190.566651 795.843019,206.974444 C788.196449,208.8718 809.127916,216.999938 816.751574,219.010352 C851.155563,228.082935 886.645801,231.217522 921.107803,240.007683 C929.50036,242.148358 939.093979,244.372683 944.752347,251.65928 C948.748278,256.805064 947.041786,265.363986 946.027069,272.097614 C941.03138,305.248862 842.749132,340.740864 824.244454,348.50554 C790.842967,362.521007 756.213112,372.714182 723.012849,387.320906 C702.723408,396.247409 683.075111,407.089405 664.033624,418.991589 C623.09429,444.581371 582.31555,470.676121 543.230368,499.696805 C538.665823,503.085973 536.543858,509.587478 534.400585,515.243914 C533.499269,517.622628 534.400585,520.414638 534.400585,523" id="Path-3" transform="translate(912.000000, 307.000000) rotate(15.000000) translate(-912.000000, -307.000000) "></path>
            </g>
        </g>
    </g>
</svg>