<?xml version="1.0" encoding="UTF-8"?>
<svg width="499px" height="172px" viewBox="0 0 499 172" version="1.1" xmlns="http://www.w3.org/2000/svg" xmlns:xlink="http://www.w3.org/1999/xlink">
    <!-- Generator: Sketch 51.3 (57544) - http://www.bohemiancoding.com/sketch -->
    <title>Path 4</title>
    <desc>Created with Sketch.</desc>
    <defs></defs>
    <g id="Page-1" stroke="none" stroke-width="1" fill="none" fill-rule="evenodd">
        <g id="Desktop" transform="translate(-441.000000, -832.000000)" stroke="#FFDD83">
            <g id="Group-3" transform="translate(-263.000000, 54.000000)">
                <path d="M1158.20416,918.774157 C1121.6307,895.369848 1085.42924,871.37551 1048.48379,848.561232 C1033.9371,839.578473 1019.12846,830.947067 1003.77843,823.41435 C999.951633,821.536426 993.364269,816.772603 991.321656,820.510063 C974.16385,851.904458 1004.5612,865.9284 1026.07436,877.674945 C1061.00278,896.746442 1155.90768,948.98914 1199.84498,949 C1209.76488,949.002451 1182.72545,938.93086 1173.74675,934.719405 C1138.8472,918.349781 1103.20449,903.594518 1068.27559,887.287428 C1058.86327,882.893144 1050.12001,877.169202 1040.77279,872.638485 C1033.16717,868.951946 1025.06315,866.354264 1017.46244,862.657652 C1007.97242,858.042172 998.116675,853.881376 989.548196,847.725363 C982.550245,842.697693 977.960164,834.881213 971.260286,829.463769 C968.522839,827.250301 965.056409,825.914077 961.619763,825.142756 C943.98572,821.184972 926.228823,817.57832 908.295394,815.33193 C875.495301,811.223303 842.429225,809.5749 809.556286,806.094879 C806.003199,805.718739 802.473363,804.926775 799.092877,803.771449 C790.871643,800.961732 783.247074,796.42007 774.83905,794.229801 C751.46714,788.141479 727.613017,784.0766 704,779" id="Path-4"></path>
            </g>
        </g>
    </g>
</svg>