<?xml version="1.0" encoding="UTF-8"?>
<svg width="351px" height="643px" viewBox="0 0 351 643" version="1.1" xmlns="http://www.w3.org/2000/svg" xmlns:xlink="http://www.w3.org/1999/xlink">
    <!-- Generator: Sketch 52.5 (67469) - http://www.bohemiancoding.com/sketch -->
    <title>Artboard</title>
    <desc>Created with Sketch.</desc>
    <g id="Artboard" stroke="none" stroke-width="1" fill="none" fill-rule="evenodd">
        <path d="M32,165.211999 C33.1083304,138.499686 45.6297777,104.728777 66.7442444,88.7895276 C122.904731,46.3941398 130.79327,46.3941398 181.571927,42.3205006 C203.518969,40.5598331 217.107494,40.5598331 224.643613,42.3205006 C258.69089,50.2749846 258.69089,50.2749846 275.591783,69.2063064 C299.315567,95.780204 299.315567,95.780204 301.654688,112.463271 C303,122.058298 303,127.923593 303,141.389831 C303,203.361743 240.873522,192.663136 205.364502,233.233789 C162.466692,282.246466 169.216425,313.980042 167.665654,349.772375 C166.78375,370.127029 188.643542,413.519373 196.142688,428" id="Path-2" stroke="#FFDD83" stroke-width="51" stroke-linecap="round"></path>
        <path d="M237.045104,561.970143 C237.282889,575.265765 246.036678,591.2214 261.51045,587.433308 C270.970878,585.117326 272.975122,563.54738 269.215883,556.695048 C263.268469,545.854115 252.397856,545.726962 241.056532,545 C233.043375,546.683203 236.923281,555.158505 237.045104,561.970143 Z" id="Path-3" stroke="#FFDD83" stroke-width="51" fill="#FFDD83" stroke-linecap="round"></path>
        <path d="" id="Path-4"></path>
    </g>
</svg>