<?xml version="1.0" encoding="UTF-8"?>
<svg width="650px" height="650px" viewBox="0 0 650 650" version="1.1" xmlns="http://www.w3.org/2000/svg" xmlns:xlink="http://www.w3.org/1999/xlink">
    <!-- Generator: Sketch 52.5 (67469) - http://www.bohemiancoding.com/sketch -->
    <title>Artboard</title>
    <desc>Created with Sketch.</desc>
    <g id="Artboard" stroke="none" stroke-width="1" fill="none" fill-rule="evenodd">
        <g id="yellow" transform="translate(1.000000, 110.000000)" fill="#FFDD83">
            <path d="M66.9646303,119 C101.870447,119 117,94.4407492 117,59.5 C117,24.5592509 94.3463313,0 59.4405144,0 C43.2692738,0 32.2785961,7.96233087 21.100868,17.9625092 C8.15133575,29.5478357 0,50.1612319 0,68.914557 C0,103.855306 32.0588134,119 66.9646303,119 Z" id="Oval"></path>
        </g>
        <g id="yellow-copy-2" transform="translate(321.250829, 362.824856) rotate(-45.000000) translate(-321.250829, -362.824856) translate(-82.249171, 275.324856)" fill="#FFDD83">
            <path d="M66.9646303,119 C101.870447,119 117,94.4407492 117,59.5 C117,24.5592509 94.3463313,0 59.4405144,0 C43.2692738,0 32.2785961,7.96233087 21.100868,17.9625092 C8.15133575,29.5478357 0,50.1612319 0,68.914557 C0,103.855306 32.0588134,119 66.9646303,119 Z" id="Oval"></path>
            <path d="M756.96463,175 C791.870447,175 807,150.440749 807,115.5 C807,80.5592509 784.346331,56 749.440514,56 C733.269274,56 722.278596,63.9623309 711.100868,73.9625092 C698.151336,85.5478357 690,106.161232 690,124.914557 C690,159.855306 722.058813,175 756.96463,175 Z" id="Oval"></path>
        </g>
        <g id="yellow-copy" transform="translate(118.000000, 53.000000)" fill="#FFDD83">
            <path d="M32.6237942,57 C49.6291921,57 57,45.2363252 57,28.5 C57,11.7636748 45.9635973,0 28.9581993,0 C21.0799026,0 15.7254699,3.81388958 10.27991,8.60389095 C3.97116357,14.153165 0,24.0268086 0,33.0094937 C0,49.7458189 15.6183963,57 32.6237942,57 Z" id="Oval"></path>
        </g>
        <g id="yellow-copy-3" transform="translate(139.366486, 505.844192) rotate(-45.000000) translate(-139.366486, -505.844192) translate(110.866486, 477.344192)" fill="#FFDD83">
            <path d="M32.6237942,57 C49.6291921,57 57,45.2363252 57,28.5 C57,11.7636748 45.9635973,0 28.9581993,0 C21.0799026,0 15.7254699,3.81388958 10.27991,8.60389095 C3.97116357,14.153165 5.68434189e-14,24.0268086 5.68434189e-14,33.0094937 C5.68434189e-14,49.7458189 15.6183963,57 32.6237942,57 Z" id="Oval"></path>
        </g>
        <path d="" id="Path" stroke="#979797"></path>
        <path d="" id="Path-Copy" stroke="#979797" transform="translate(29.707107, 560.707107) rotate(-45.000000) translate(-29.707107, -560.707107) "></path>
        <rect id="Rectangle" stroke="#FFEBB6" stroke-width="2" x="60" y="2" width="169" height="169"></rect>
        <path d="M155.389394,547.039105 L48.4762118,547.039105" id="Path-2" stroke="#FFEBB6" stroke-width="2" transform="translate(101.890873, 547.539105) rotate(-45.000000) translate(-101.890873, -547.539105) "></path>
        <g id="yellow" transform="translate(590.500000, 509.500000) rotate(-180.000000) translate(-590.500000, -509.500000) translate(532.000000, 450.000000)" fill="#FFDD83">
            <path d="M66.9646303,119 C101.870447,119 117,94.4407492 117,59.5 C117,24.5592509 94.3463313,-1.47792889e-12 59.4405144,-1.47792889e-12 C43.2692738,-1.47792889e-12 32.2785961,7.96233087 21.100868,17.9625092 C8.15133575,29.5478357 0,50.1612319 0,68.914557 C0,103.855306 32.0588134,119 66.9646303,119 Z" id="Oval"></path>
        </g>
        <g id="yellow-copy" transform="translate(478.500000, 620.500000) rotate(-180.000000) translate(-478.500000, -620.500000) translate(450.000000, 592.000000)" fill="#FFDD83">
            <path d="M32.6237942,57 C49.6291921,57 57,45.2363252 57,28.5 C57,11.7636748 45.9635973,-1.70530257e-12 28.9581993,-1.70530257e-12 C21.0799026,-1.70530257e-12 15.7254699,3.81388958 10.27991,8.60389095 C3.97116357,14.153165 2.27373675e-12,24.0268086 2.27373675e-12,33.0094937 C2.27373675e-12,49.7458189 15.6183963,57 32.6237942,57 Z" id="Oval"></path>
        </g>
        <path d="" id="Path" stroke="#979797" transform="translate(649.500000, 579.500000) rotate(-180.000000) translate(-649.500000, -579.500000) "></path>
        <path d="M589.623794,58 C606.629192,58 614,46.2363252 614,29.5 C614,12.7636748 602.963597,1 585.958199,1 C578.079903,1 572.72547,4.81388958 567.27991,9.60389095 C560.971164,15.153165 557,25.0268086 557,34.0094937 C557,50.7458189 572.618396,58 589.623794,58 Z" id="Oval" fill="#FFDD83"></path>
        <polyline id="Path-3" stroke="#FFEBB6" stroke-width="2" points="135.285327 444.969153 202.971692 444.969153 202.971692 512.654716"></polyline>
        <polyline id="Path-4" stroke="#FFEBB6" stroke-width="2" points="479.758786 450.090181 479.758786 620.374286 649.547611 620.374286"></polyline>
        <polyline id="Path-5" stroke="#FFEBB6" stroke-width="2" points="538.953015 199.496319 586.027414 152.42192 633.101813 199.496319"></polyline>
    </g>
</svg>