<?xml version="1.0" encoding="UTF-8"?>
<svg width="787px" height="701px" viewBox="0 0 787 701" version="1.1" xmlns="http://www.w3.org/2000/svg" xmlns:xlink="http://www.w3.org/1999/xlink">
    <!-- Generator: Sketch 52.5 (67469) - http://www.bohemiancoding.com/sketch -->
    <title>Artboard Copy 3</title>
    <desc>Created with Sketch.</desc>
    <g id="Artboard-Copy-3" stroke="none" stroke-width="1" fill="none" fill-rule="evenodd">
        <path d="M208.569694,578.787754 C87.1863273,457.501466 28.3682574,293.48473 149.8731,172.077063 C215.086922,106.915397 315.11495,63.6138165 400.433789,68.3539849 C474.078981,72.4455852 539.987193,82.9680988 596.221936,139.157867 C717.605303,260.444155 710.978729,424.493596 589.473887,545.901262 C467.969044,667.308928 329.953061,700.074041 208.569694,578.787754 Z" id="Oval" fill="#FFEBB6"></path>
        <path d="M759.95476,682.592187 C711.291158,639.864062 686.959357,587.051443 686.959357,524.154329 C686.959357,429.808658 759.95476,337 759.95476,297 C759.95476,257 768.903561,180.316048 667.661353,154.736894 C566.419145,129.15774 511.37185,236 464.336695,337 C417.301539,438 364.090839,701 227.921217,701 C91.7515946,701 19.7892758,505 19.7892758,425 C19.7892758,345 -29.7666041,89 247.223813,0" id="Path-6" stroke="#FFDE7C" stroke-width="6" stroke-linecap="round" stroke-linejoin="round" stroke-dasharray="10,20"></path>
        <g id="yellow" transform="translate(76.000000, 146.000000)" fill="#E6834A">
            <path d="M66.9646303,119 C101.870447,119 117,94.4407492 117,59.5 C117,24.5592509 94.3463313,0 59.4405144,0 C43.2692738,0 32.2785961,7.96233087 21.100868,17.9625092 C8.15133575,29.5478357 0,50.1612319 0,68.914557 C0,103.855306 32.0588134,119 66.9646303,119 Z" id="Oval"></path>
        </g>
        <g id="yellow-copy-2" transform="translate(239.950793, 600.521861) rotate(-45.000000) translate(-239.950793, -600.521861) translate(186.450793, 546.021861)" fill="#E6834A">
            <path d="M60.8655095,108.872889 C92.4895826,108.872889 106.196699,86.5838214 106.196699,54.8728894 C106.196699,23.1619574 85.6728626,0.872889374 54.0487891,0.872889374 C39.3979215,0.872889374 29.4405555,8.09920647 19.3137248,17.1749986 C7.58166999,27.6894125 0.196699141,46.3973688 0.196699141,63.4171932 C0.196699141,95.1281252 29.241436,108.872889 60.8655095,108.872889 Z" id="Oval"></path>
        </g>
        <g id="yellow-copy" transform="translate(193.000000, 89.000000)" fill="#5169D9">
            <path d="M32.6237942,57 C49.6291921,57 57,45.2363252 57,28.5 C57,11.7636748 45.9635973,0 28.9581993,0 C21.0799026,0 15.7254699,3.81388958 10.27991,8.60389095 C3.97116357,14.153165 0,24.0268086 0,33.0094937 C0,49.7458189 15.6183963,57 32.6237942,57 Z" id="Oval"></path>
        </g>
        <g id="yellow-copy-3" transform="translate(316.305087, 515.305087) rotate(-45.000000) translate(-316.305087, -515.305087) translate(287.805087, 486.805087)" fill="#5169D9">
            <path d="M32.6237942,57 C49.6291921,57 57,45.2363252 57,28.5 C57,11.7636748 45.9635973,0 28.9581993,0 C21.0799026,0 15.7254699,3.81388958 10.27991,8.60389095 C3.97116357,14.153165 0,24.0268086 0,33.0094937 C0,49.7458189 15.6183963,57 32.6237942,57 Z" id="Oval"></path>
        </g>
        <path d="" id="Path" stroke="#979797"></path>
        <path d="" id="Path-Copy" stroke="#979797" transform="translate(220.707107, 574.707107) rotate(-45.000000) translate(-220.707107, -574.707107) "></path>
        <g id="yellow" transform="translate(651.500000, 277.500000) rotate(-180.000000) translate(-651.500000, -277.500000) translate(593.000000, 218.000000)" fill="#E6834A">
            <path d="M66.9646303,119 C101.870447,119 117,94.4407492 117,59.5 C117,24.5592509 94.3463313,0 59.4405144,0 C43.2692738,0 32.2785961,7.96233087 21.100868,17.9625092 C8.15133575,29.5478357 0,50.1612319 0,68.914557 C0,103.855306 32.0588134,119 66.9646303,119 Z" id="Oval"></path>
        </g>
        <g id="yellow-copy" transform="translate(539.500000, 388.500000) rotate(-180.000000) translate(-539.500000, -388.500000) translate(511.000000, 360.000000)" fill="#5169D9">
            <path d="M32.6237942,57 C49.6291921,57 57,45.2363252 57,28.5 C57,11.7636748 45.9635973,0 28.9581993,0 C21.0799026,0 15.7254699,3.81388958 10.27991,8.60389095 C3.97116357,14.153165 0,24.0268086 0,33.0094937 C0,49.7458189 15.6183963,57 32.6237942,57 Z" id="Oval"></path>
        </g>
        <path d="" id="Path" stroke="#979797" transform="translate(707.500000, 618.500000) rotate(-180.000000) translate(-707.500000, -618.500000) "></path>
        <path d="" id="Path-2" stroke="#979797"></path>
    </g>
</svg>