<?xml version="1.0" encoding="UTF-8"?>
<svg width="641px" height="631px" viewBox="0 0 641 631" version="1.1" xmlns="http://www.w3.org/2000/svg" xmlns:xlink="http://www.w3.org/1999/xlink">
    <!-- Generator: Sketch 52.5 (67469) - http://www.bohemiancoding.com/sketch -->
    <title>Artboard</title>
    <desc>Created with Sketch.</desc>
    <g id="Artboard" stroke="none" stroke-width="1" fill="none" fill-rule="evenodd">
        <path d="M135.569694,543.787754 C14.1863273,422.501466 -44.6317426,258.48473 76.8731,137.077063 C142.086922,71.9153974 242.11495,28.6138165 327.433789,33.3539849 C401.078981,37.4455852 466.987193,47.9680988 523.221936,104.157867 C644.605303,225.444155 637.978729,389.493596 516.473887,510.901262 C394.969044,632.308928 256.953061,665.074041 135.569694,543.787754 Z" id="Oval" fill="#FFF9E8"></path>
        <g id="yellow" transform="translate(3.000000, 111.000000)" fill="#FFDD83">
            <path d="M66.9646303,119 C101.870447,119 117,94.4407492 117,59.5 C117,24.5592509 94.3463313,0 59.4405144,0 C43.2692738,0 32.2785961,7.96233087 21.100868,17.9625092 C8.15133575,29.5478357 0,50.1612319 0,68.914557 C0,103.855306 32.0588134,119 66.9646303,119 Z" id="Oval"></path>
        </g>
        <g id="yellow-copy-2" transform="translate(174.728968, 566.228968) rotate(-45.000000) translate(-174.728968, -566.228968) translate(116.228968, 506.728968)" fill="#FFDD83">
            <path d="M66.9646303,119 C101.870447,119 117,94.4407492 117,59.5 C117,24.5592509 94.3463313,0 59.4405144,0 C43.2692738,0 32.2785961,7.96233087 21.100868,17.9625092 C8.15133575,29.5478357 -5.68434189e-14,50.1612319 -5.68434189e-14,68.914557 C-5.68434189e-14,103.855306 32.0588134,119 66.9646303,119 Z" id="Oval"></path>
        </g>
        <g id="yellow-copy" transform="translate(120.000000, 54.000000)" fill="#FFF3D2">
            <path d="M32.6237942,57 C49.6291921,57 57,45.2363252 57,28.5 C57,11.7636748 45.9635973,0 28.9581993,0 C21.0799026,0 15.7254699,3.81388958 10.27991,8.60389095 C3.97116357,14.153165 0,24.0268086 0,33.0094937 C0,49.7458189 15.6183963,57 32.6237942,57 Z" id="Oval"></path>
        </g>
        <g id="yellow-copy-3" transform="translate(256.595454, 485.095454) rotate(-45.000000) translate(-256.595454, -485.095454) translate(228.095454, 456.595454)" fill="#FFF3D2">
            <path d="M32.6237942,57 C49.6291921,57 57,45.2363252 57,28.5 C57,11.7636748 45.9635973,-1.13686838e-13 28.9581993,-1.13686838e-13 C21.0799026,-1.13686838e-13 15.7254699,3.81388958 10.27991,8.60389095 C3.97116357,14.153165 5.68434189e-14,24.0268086 5.68434189e-14,33.0094937 C5.68434189e-14,49.7458189 15.6183963,57 32.6237942,57 Z" id="Oval"></path>
        </g>
        <path d="" id="Path" stroke="#979797"></path>
        <path d="" id="Path-Copy" stroke="#979797" transform="translate(147.707107, 539.707107) rotate(-45.000000) translate(-147.707107, -539.707107) "></path>
        <rect id="Rectangle" stroke="#FFEBB6" stroke-width="3" x="62.5" y="3.5" width="168" height="168"></rect>
        <path d="M273.389394,526.390873 L166.476212,526.390873" id="Path-2" stroke="#FFEBB6" stroke-width="3" transform="translate(219.890873, 526.890873) rotate(-45.000000) translate(-219.890873, -526.890873) "></path>
        <g id="yellow" transform="translate(578.500000, 242.500000) rotate(-180.000000) translate(-578.500000, -242.500000) translate(520.000000, 183.000000)" fill="#FFDD83">
            <path d="M66.9646303,119 C101.870447,119 117,94.4407492 117,59.5 C117,24.5592509 94.3463313,0 59.4405144,0 C43.2692738,0 32.2785961,7.96233087 21.100868,17.9625092 C8.15133575,29.5478357 0,50.1612319 0,68.914557 C0,103.855306 32.0588134,119 66.9646303,119 Z" id="Oval"></path>
        </g>
        <g id="yellow-copy" transform="translate(466.500000, 353.500000) rotate(-180.000000) translate(-466.500000, -353.500000) translate(438.000000, 325.000000)" fill="#FFF3D2">
            <path d="M32.6237942,57 C49.6291921,57 57,45.2363252 57,28.5 C57,11.7636748 45.9635973,0 28.9581993,0 C21.0799026,0 15.7254699,3.81388958 10.27991,8.60389095 C3.97116357,14.153165 0,24.0268086 0,33.0094937 C0,49.7458189 15.6183963,57 32.6237942,57 Z" id="Oval"></path>
        </g>
        <path d="" id="Path" stroke="#979797" transform="translate(634.500000, 583.500000) rotate(-180.000000) translate(-634.500000, -583.500000) "></path>
        <polyline id="Path-3" stroke="#FFEBB6" stroke-width="3" points="253 424 321 424 321 492"></polyline>
        <polyline id="Path-4" stroke="#FFEBB6" stroke-width="3" points="468 183 468 353 638 353"></polyline>
    </g>
</svg>