<?xml version="1.0" encoding="UTF-8"?>
<svg width="433px" height="424px" viewBox="0 0 433 424" version="1.1" xmlns="http://www.w3.org/2000/svg" xmlns:xlink="http://www.w3.org/1999/xlink">
    <!-- Generator: Sketch 51.3 (57544) - http://www.bohemiancoding.com/sketch -->
    <title>Group</title>
    <desc>Created with Sketch.</desc>
    <defs></defs>
    <g id="Page-4" stroke="none" stroke-width="1" fill="none" fill-rule="evenodd">
        <g id="Artboard">
            <g id="Group" transform="translate(7.000000, 0.000000)">
                <path d="M154.030812,90.1205062 L168.109825,251.044366 L329.261882,236.945388 C330.635403,246.894561 331.338608,257.210451 331.338608,267.848277 C331.338608,282.482786 337.209461,296.995219 331.338608,306.5 C322.139683,321.392853 298.602805,328.700461 289.5,341 C277.524084,357.181634 289.5,372 266.5,392 C250.796196,405.655482 246.675669,411.901156 215.426278,411.901156 C188,411.901156 188,397 159.118441,402.5 C124.897982,409.016702 92.4146804,429.308031 80.5,402.5 C68.5,375.5 44.5488801,370.382844 23,347.5 C11.2987676,335.074413 31.5,309 13.5,279.5 C-1.38367178,255.107316 -8.64998483,213.969754 23,186 C44.5,167 71,171.5 86,143.5 C100.401054,116.618033 114.34124,92.0404037 154.030812,90.1205062 Z" id="Combined-Shape" stroke="#FF6ECC" stroke-width="15" fill="#FF6ECC"></path>
                <rect id="Rectangle" fill="#ECECE6" transform="translate(272.500000, 150.500000) rotate(-5.000000) translate(-272.500000, -150.500000) " x="131" y="12" width="283" height="277"></rect>
                <path d="M206.552976,324.52291 C339.105165,286.52291 339.105165,357.02291 331.102014,228.52291 C323.098863,100.02291 280.081926,95.0229095 197.549432,81.5229095 C115.016937,68.0229095 72,146.508624 72,228.52291 C72,310.537195 74.0007878,362.52291 206.552976,324.52291 Z" id="Oval" stroke="#FF6ECC" stroke-width="15" stroke-linecap="round" stroke-dasharray="50"></path>
                <path d="" id="Path-2" stroke="#979797"></path>
            </g>
        </g>
    </g>
</svg>