<?xml version="1.0" encoding="UTF-8"?>
<svg width="663px" height="674px" viewBox="0 0 663 674" version="1.1" xmlns="http://www.w3.org/2000/svg" xmlns:xlink="http://www.w3.org/1999/xlink">
    <!-- Generator: Sketch 52.5 (67469) - http://www.bohemiancoding.com/sketch -->
    <title>Artboard Copy 2</title>
    <desc>Created with Sketch.</desc>
    <g id="Artboard-Copy-2" stroke="none" stroke-width="1" fill="none" fill-rule="evenodd">
        <path d="M93.5970513,163.970272 C110.369745,70.5683947 227.772403,75.3498804 313.048472,80.0870258 C386.656745,84.1760167 554.485575,68.7649583 581.355328,142.151128 C601.996772,198.526657 615.609787,581.645976 532.223205,601.934693 C512.312015,606.779267 436.012751,613.312748 410.742985,613.312748 C313.048472,613.312748 164.160083,647.975536 106.93651,570.090313 C29.3050726,464.42858 84.2076882,216.256695 93.5970513,163.970272 Z" id="Oval-Copy" fill="#F6EFD2"></path>
        <path d="M449.292605,539 C497.922076,539 519,505.360018 519,457.5 C519,409.639982 487.439761,376 438.810289,376 C416.281125,376 400.969326,386.906386 385.396936,400.604109 C367.356134,416.473086 356,444.708242 356,470.39557 C356,518.255587 400.663133,539 449.292605,539 Z" id="Oval" fill="#94C4C8"></path>
        <path d="M181.652733,297 C254.44777,297 286,245.611316 286,172.5 C286,99.3886846 238.756452,48 165.961415,48 C132.236776,48 109.316047,64.6606755 86.005229,85.5854184 C58.9993669,109.826984 42,152.959216 42,192.199367 C42,265.310683 108.857696,297 181.652733,297 Z" id="Oval" fill="#C50602"></path>
        <path d="M168.751181,181.963248 C92.227915,181.963248 32.3669671,166.64128 17.0880381,132.719516 C1.80910917,98.7977525 0.676777043,43.7684809 82.2703438,25.2945204 C97.4574687,21.8559362 143.030416,14.2936317 171.827261,12.2537981 C201.268506,10.1683183 236.026521,9.5365374 272.883059,10.3318358 C393.656177,12.9379043 536.962618,30.8675289 589.565848,63.1840721 C645.804449,97.7339882 666.33724,214.232751 651.164222,412.680362 C668.468774,577.49561 611.741567,659.903235 480.982602,659.903235 C284.844155,659.903235 52.6651397,687.664998 52.6651397,576.944355 C52.6651397,466.223712 289.768531,475.663722 438.466122,475.663722" id="Path-6" stroke="#FD9220" stroke-width="6" stroke-linecap="round" stroke-linejoin="round" stroke-dasharray="10,20"></path>
    </g>
</svg>