<?xml version="1.0" encoding="UTF-8"?>
<svg width="664px" height="489px" viewBox="0 0 664 489" version="1.1" xmlns="http://www.w3.org/2000/svg" xmlns:xlink="http://www.w3.org/1999/xlink">
    <!-- Generator: Sketch 52.5 (67469) - http://www.bohemiancoding.com/sketch -->
    <title>Artboard Copy</title>
    <desc>Created with Sketch.</desc>
    <g id="Artboard-Copy" stroke="none" stroke-width="1" fill="none" fill-rule="evenodd">
        <path d="M50.8906963,457.268136 C3.62995106,409.95202 -19.2709281,345.965934 28.0371138,298.602466 C53.428186,273.181646 92.3742068,256.288865 125.593189,258.138096 C154.267024,259.734308 179.928458,263.839343 201.823516,285.760054 C249.084261,333.076169 246.504197,397.075014 199.196156,444.438482 C151.888114,491.80195 98.1514412,504.584251 50.8906963,457.268136 Z" id="Oval" fill="#E6834A"></path>
        <path d="M-4,487 C89.729199,420.790928 145.13876,369.138853 162.228683,332.043775" id="Path-6" stroke="#FFDE7C" stroke-width="6" stroke-linecap="round" stroke-linejoin="round" stroke-dasharray="10,20"></path>
        <path d="M104,27 L617,27 L617,391 L104,391 L104,27 Z M131.287234,56.12 L131.287234,361.88 L589.712766,361.88 L589.712766,56.12 L131.287234,56.12 Z" id="Combined-Shape" fill="#FFEBB6"></path>
        <rect id="Rectangle-Copy" fill="#FFEBB6" x="58" y="385" width="604" height="42"></rect>
        <rect id="Rectangle-Copy-2" fill="#FFDE7C" x="294" y="386" width="134" height="13"></rect>
        <path d="M565.734431,91.1144348 C543.944312,69.2314616 533.226701,39.7984546 554.672039,18.2617309 C566.182136,6.70258609 583.922385,-0.892873426 599.116836,0.0844347831 C612.232324,0.928023924 623.98029,2.91043349 634.075262,13.0484236 C655.865381,34.9313968 654.93348,64.2711092 633.488141,85.8078328 C612.042803,107.344556 587.52455,112.997408 565.734431,91.1144348 Z" id="Oval" fill="#5169D9"></path>
        <path d="M169.652016,321 C195.677611,257.666667 249.793606,220.339514 332,209.018543 C455.309592,192.037086 465.360662,189.439499 517.00031,150.981716 C551.426742,125.343195 579.143647,91.6826225 600.151025,50" id="Path-6" stroke="#FFDE7C" stroke-width="6" stroke-linecap="round" stroke-linejoin="round" stroke-dasharray="10,20"></path>
        <path d="" id="Path-4" stroke="#979797"></path>
    </g>
</svg>