<?xml version="1.0" encoding="UTF-8"?>
<svg width="650px" height="530px" viewBox="0 0 650 530" version="1.1" xmlns="http://www.w3.org/2000/svg" xmlns:xlink="http://www.w3.org/1999/xlink">
    <!-- Generator: Sketch 52.5 (67469) - http://www.bohemiancoding.com/sketch -->
    <title>Artboard Copy</title>
    <desc>Created with Sketch.</desc>
    <g id="Artboard-Copy" stroke="none" stroke-width="1" fill="none" fill-rule="evenodd">
        <path d="M46.3834811,499.826137 C1.54636383,454.989469 -20.1801112,394.356365 24.7018772,349.474826 C48.7908431,325.386101 85.7396321,309.378532 117.255077,311.13086 C144.458459,312.643428 168.803922,316.533352 189.576156,337.305378 C234.413273,382.142047 231.965521,442.787241 187.083532,487.66878 C142.201544,532.550319 91.2205981,544.662806 46.3834811,499.826137 Z" id="Oval" fill="#FFDD83"></path>
        <path d="M551.734431,91.1144348 C529.944312,69.2314616 519.226701,39.7984546 540.672039,18.2617309 C552.182136,6.70258609 569.922385,-0.892873426 585.116836,0.0844347831 C598.232324,0.928023924 609.98029,2.91043349 620.075262,13.0484236 C641.865381,34.9313968 640.93348,64.2711092 619.488141,85.8078328 C598.042803,107.344556 573.52455,112.997408 551.734431,91.1144348 Z" id="Oval" fill="#FFDD83"></path>
        <path d="M91.5,28.5 L91.5,389.5 L601.5,389.5 L601.5,28.5 L91.5,28.5 Z M115.787234,54.62 L577.212766,54.62 L577.212766,363.38 L115.787234,363.38 L115.787234,54.62 Z" id="Combined-Shape" stroke="#FFEBB6" stroke-width="3" fill="#FFFFFF"></path>
        <rect id="Rectangle-Copy" stroke="#FFEBB6" stroke-width="3" fill="#FFFFFF" x="45.5" y="386.5" width="601" height="39"></rect>
        <rect id="Rectangle-Copy-2" fill="#FFEBB6" x="280" y="386" width="134" height="13"></rect>
    </g>
</svg>