<?xml version="1.0" encoding="UTF-8"?>
<svg width="664px" height="489px" viewBox="0 0 664 489" version="1.1" xmlns="http://www.w3.org/2000/svg" xmlns:xlink="http://www.w3.org/1999/xlink">
    <!-- Generator: Sketch 52.5 (67469) - http://www.bohemiancoding.com/sketch -->
    <title>Artboard Copy</title>
    <desc>Created with Sketch.</desc>
    <g id="Artboard-Copy" stroke="none" stroke-width="1" fill="none" fill-rule="evenodd">
        <path d="M50.8906963,457.268136 C3.62995106,409.95202 -19.2709281,345.965934 28.0371138,298.602466 C53.428186,273.181646 92.3742068,256.288865 125.593189,258.138096 C154.267024,259.734308 179.928458,263.839343 201.823516,285.760054 C249.084261,333.076169 246.504197,397.075014 199.196156,444.438482 C151.888114,491.80195 98.1514412,504.584251 50.8906963,457.268136 Z" id="Oval" fill="#FFDD83"></path>
        <path d="M565.734431,91.1144348 C543.944312,69.2314616 533.226701,39.7984546 554.672039,18.2617309 C566.182136,6.70258609 583.922385,-0.892873426 599.116836,0.0844347831 C612.232324,0.928023924 623.98029,2.91043349 634.075262,13.0484236 C655.865381,34.9313968 654.93348,64.2711092 633.488141,85.8078328 C612.042803,107.344556 587.52455,112.997408 565.734431,91.1144348 Z" id="Oval" fill="#FFF3D2"></path>
        <path d="M605.10974,255.256926 L133.986761,154.233585" id="Path-2" stroke="#FFEBB6" stroke-width="3" transform="translate(369.551299, 204.412734) rotate(-45.000000) translate(-369.551299, -204.412734) "></path>
        <path d="M105.5,28.5 L105.5,389.5 L615.5,389.5 L615.5,28.5 L105.5,28.5 Z M129.787234,54.62 L591.212766,54.62 L591.212766,363.38 L129.787234,363.38 L129.787234,54.62 Z" id="Combined-Shape" stroke="#FFEBB6" stroke-width="3" fill="#FFFFFF"></path>
        <rect id="Rectangle-Copy" stroke="#FFEBB6" stroke-width="3" fill="#FFFFFF" x="59.5" y="386.5" width="601" height="39"></rect>
        <rect id="Rectangle-Copy-2" fill="#FFEBB6" x="294" y="386" width="134" height="13"></rect>
    </g>
</svg>